# xmcd
# 
# Track frame offsets:
#     150
#     15647
#     31306
#     41579
#     55521
#     73221
#     90127
#     107196
#     123225
#     139469
#     156779
#     179843
#     202800
# 
# Disc length: 3008
# 
# Revision: 0
# Processed by: cddbd v1.5.2PL0 Copyright (c) Steve Scherf et al.
# Submitted via: fre:ac v1.0.31
# 
DISCID=ad0bbe0d
DTITLE=mono no aware - かけがえのないもの
DYEAR=2019
DGENRE=
TTITLE0=新人類
TTITLE1=えんぴつ
TTITLE2=かむかもしかもにどもかも！
TTITLE3=時間泥棒がやってくる
TTITLE4=ゴミ
TTITLE5=普通のひと
TTITLE6=テレビスターの悲劇
TTITLE7=ヒトノキモチニナ～ル
TTITLE8=ゲームは1日30分
TTITLE9=女子高生
TTITLE10=言葉がなかったら
TTITLE11=LAST
TTITLE12=A・I・A・O・U
EXTD=
EXTT0=
EXTT1=
EXTT2=
EXTT3=
EXTT4=
EXTT5=
EXTT6=
EXTT7=
EXTT8=
EXTT9=
EXTT10=
EXTT11=
EXTT12=
PLAYORDER=
